<svg width="286" height="32" viewBox="0 0 286 32" fill="none" xmlns="http://www.w3.org/2000/svg">
<path fill-rule="evenodd" clip-rule="evenodd" d="M29 20.9395H17.7355V19.7896C18.095 19.7896 18.4545 19.7291 18.9339 19.6686C19.4132 19.6081 19.7727 19.5476 19.8926 19.4265C20.2521 19.3055 20.4917 19.0634 20.6715 18.8213C20.8512 18.5793 20.9112 18.2161 20.9112 17.853V2.17867L13.8409 20.6369H11.9835C11.9236 20.3343 11.6839 19.6686 11.3244 18.7003C10.9649 17.732 10.7252 16.9452 10.4855 16.4006L5.27273 1.99712V14.7666C5.27273 15.9769 5.33264 16.9452 5.5124 17.5504C5.69215 18.1556 5.93182 18.6398 6.29132 18.9424C6.53099 19.1239 6.95041 19.366 7.6095 19.5476C8.26859 19.7291 8.68802 19.8501 8.92769 19.8501V21H0V19.8501C0.239669 19.8501 0.659091 19.7291 1.19835 19.6686C1.7376 19.5476 2.21694 19.366 2.57645 19.1239C2.93595 18.8213 3.23554 18.3977 3.35537 17.732C3.47521 17.0663 3.53512 16.1585 3.53512 14.9481V4.47839C3.53512 3.8732 3.47521 3.32853 3.29545 2.9049C3.1157 2.48127 2.87603 2.17867 2.57645 1.9366C2.15702 1.63401 1.79752 1.45245 1.3781 1.33141C0.958678 1.27089 0.539256 1.21037 0.119835 1.14986V0H9.70661L14.7996 13.7983L19.1136 2.60231C19.2335 2.17867 19.4132 1.69452 19.5331 1.14986C19.6529 0.605187 19.7128 0.181556 19.7727 0H28.9401V1.14986C28.6405 1.14986 28.281 1.21037 27.9814 1.27089C27.6219 1.33141 27.3223 1.39193 27.0227 1.51297C26.6632 1.63401 26.3636 1.81556 26.2438 2.11816C26.124 2.42075 26.064 2.72334 26.064 3.02594V17.853C26.064 18.2161 26.124 18.5187 26.2438 18.7608C26.3636 19.0029 26.6033 19.1844 27.0227 19.366C27.2025 19.4265 27.562 19.5476 27.9814 19.6081C28.4008 19.6686 28.7603 19.7291 29 19.7896V20.9395Z" transform="translate(34 6)" fill="#0F3559"/>
<path fill-rule="evenodd" clip-rule="evenodd" d="M13.2678 12.6239L10.3194 5.14526L7.42993 12.6239H13.2678ZM24 21H12.855V19.8632C13.3857 19.8034 13.9754 19.7436 14.683 19.5641C15.3907 19.3846 15.7445 19.2051 15.7445 19.0256V18.7863C15.7445 18.6667 15.6855 18.547 15.6265 18.3675L13.8575 14.0598H6.78133C6.60442 14.4786 6.42752 14.8974 6.25061 15.4359C6.07371 15.9744 5.89681 16.453 5.7199 16.8718C5.543 17.4103 5.42506 17.8291 5.42506 18.0684C5.36609 18.3077 5.36609 18.4872 5.36609 18.6068C5.36609 18.906 5.60197 19.2051 6.07371 19.3846C6.54545 19.6239 7.31204 19.7436 8.37346 19.8632V21H0V19.8632C0.29484 19.8632 0.648649 19.8034 1.06143 19.6838C1.4742 19.6239 1.76904 19.5043 2.00491 19.3248C2.41769 19.0855 2.71253 18.7863 3.00737 18.4872C3.30221 18.1282 3.47912 17.7692 3.71499 17.2906C4.83538 14.5385 5.95577 11.8462 7.07617 9.09402C8.19656 6.34188 9.43489 3.35043 10.7912 0H13.6806C15.5676 4.66667 17.0418 8.37607 18.1032 11.1282C19.1646 13.8803 20.0491 16.094 20.8157 17.8889C20.9337 18.188 21.1106 18.4273 21.2875 18.6667C21.4644 18.906 21.7592 19.1453 22.113 19.3248C22.4079 19.5043 22.7027 19.6239 23.0565 19.6838C23.4103 19.7436 23.7052 19.8034 24 19.8034V21Z" transform="translate(64 6)" fill="#0F3559"/>
<path fill-rule="evenodd" clip-rule="evenodd" d="M20 5.68116H18.8657C18.5672 4.81159 18.0896 3.88406 17.4328 2.89855C16.7761 1.91304 16.1791 1.3913 15.5821 1.33333C15.2836 1.27536 14.8657 1.27536 14.4478 1.21739C13.9701 1.21739 13.6119 1.15942 13.2537 1.15942H12.597V17.9275C12.597 18.2754 12.6567 18.5652 12.7761 18.7971C12.8955 19.029 13.1343 19.2609 13.4925 19.4348C13.7313 19.4928 14.0896 19.6087 14.5075 19.7246C14.9851 19.8406 15.403 19.8986 15.7015 19.8986V21H4.1791V19.8986C4.47761 19.8986 4.83582 19.8406 5.37313 19.7826C5.91045 19.7246 6.20896 19.6667 6.38806 19.6087C6.74627 19.4348 7.04478 19.2609 7.16418 19.029C7.28358 18.7971 7.34328 18.4493 7.34328 18.1014V1.21739H6.74627C6.38806 1.21739 6.02985 1.21739 5.55224 1.27536C5.07463 1.27536 4.71642 1.33333 4.41791 1.3913C3.8806 1.44928 3.22388 1.97101 2.56716 2.95652C1.91045 3.94203 1.43284 4.86957 1.13433 5.73913H0V0H20V5.68116Z" transform="translate(88 6)" fill="#0F3559"/>
<path fill-rule="evenodd" clip-rule="evenodd" d="M25 20.9393H14V19.7861C14.2353 19.7861 14.5882 19.7254 15.0588 19.7254C15.5294 19.6647 15.8235 19.604 16 19.5434C16.3529 19.422 16.5882 19.1792 16.7059 18.9364C16.8235 18.6936 16.8824 18.3902 16.8824 18.026V10.8035H8.17647V17.9046C8.17647 18.2688 8.23529 18.5116 8.41177 18.815C8.52941 19.0578 8.76471 19.3006 9.11765 19.422C9.29412 19.4827 9.58823 19.604 10.0588 19.6647C10.4706 19.7254 10.8824 19.7861 11.1176 19.8468V21H0.117647V19.8468C0.352941 19.8468 0.705882 19.7861 1.17647 19.7254C1.64706 19.6647 2 19.604 2.17647 19.5434C2.52941 19.422 2.76471 19.2399 2.88235 18.9364C3 18.6936 3.05882 18.3902 3.05882 18.026V3.15607C3.05882 2.79191 3 2.54913 2.88235 2.30636C2.76471 2.06358 2.52941 1.8815 2.11765 1.69942C1.82353 1.57803 1.47059 1.45665 1 1.33526C0.529412 1.21387 0.235294 1.15318 0 1.15318V0H11V1.15318C10.7059 1.15318 10.3529 1.21387 9.94118 1.27457C9.52941 1.33526 9.23529 1.45665 9 1.51734C8.64706 1.63873 8.35294 1.82081 8.23529 2.12428C8.11765 2.42775 8.05882 2.73121 8.05882 3.03468V9.28613H16.7647V3.15607C16.7647 2.79191 16.7059 2.54913 16.5882 2.30636C16.4706 2.06358 16.2353 1.8815 15.8235 1.69942C15.5882 1.57803 15.2353 1.45665 14.8235 1.39595C14.4118 1.27457 14.0588 1.21387 13.8235 1.21387V0.0606936H24.8235V1.21387C24.5294 1.21387 24.1765 1.27457 23.7647 1.33526C23.3529 1.39595 23.0588 1.45665 22.7059 1.57803C22.3529 1.69942 22.1176 1.8815 22 2.18497C21.8824 2.48844 21.8235 2.79191 21.8235 3.09538V17.9653C21.8235 18.3295 21.8824 18.6329 22 18.8757C22.1176 19.1185 22.3529 19.3006 22.7059 19.4827C22.9412 19.604 23.2941 19.6647 23.7059 19.7254C24.1176 19.7861 24.4706 19.8468 24.7647 19.8468V20.9393H25Z" transform="translate(109 6)" fill="#0F3559"/>
<path fill-rule="evenodd" clip-rule="evenodd" d="M18.5542 5.04348H17.4096C17.1084 4.28986 16.6265 3.53623 15.9639 2.72464C15.241 1.97101 14.5783 1.50725 13.9157 1.33333C13.6145 1.27536 13.1928 1.21739 12.7108 1.21739H11.3855H8.37349V8.92754H10.5422C11.0843 8.92754 11.5663 8.86957 11.988 8.75362C12.4096 8.63768 12.8313 8.4058 13.1928 8.05797C13.4337 7.82609 13.6747 7.47826 13.8554 6.89855C14.0964 6.37681 14.2169 5.85507 14.2771 5.44928H15.4217V13.7971H14.2771C14.2169 13.3913 14.0964 12.9275 13.8554 12.2899C13.6145 11.7101 13.3735 11.3043 13.1928 11.0725C12.8916 10.7246 12.4699 10.4928 12.0482 10.3768C11.6265 10.2609 11.0843 10.2029 10.5422 10.2029H8.37349V17C8.37349 17.5797 8.43373 18.1014 8.49398 18.4493C8.61446 18.7971 8.73494 19.087 9.03614 19.2609C9.27711 19.4348 9.63855 19.5507 10.0602 19.6087C10.4819 19.6667 11.0843 19.6667 11.8072 19.6667H13.012C13.494 19.6667 13.9157 19.6087 14.2771 19.6087C14.6988 19.5507 15.0602 19.4928 15.4217 19.3768C15.7831 19.2609 16.0241 19.1449 16.2048 18.971C16.6867 18.5072 17.2289 17.8116 17.7711 16.8841C18.3133 15.9565 18.7349 15.2029 18.9157 14.7391H20L19.5783 21H0V19.8986C0.301205 19.8986 0.662651 19.8406 1.14458 19.7826C1.62651 19.7246 1.92771 19.6667 2.16867 19.6087C2.53012 19.4348 2.77108 19.2609 2.89157 19.029C3.01205 18.7971 3.07229 18.5072 3.07229 18.1594V3.01449C3.07229 2.66667 3.01205 2.37681 2.89157 2.14493C2.77108 1.91304 2.53012 1.73913 2.10843 1.56522C1.86747 1.44928 1.50602 1.33333 1.0241 1.27536C0.542169 1.15942 0.240964 1.10145 0 1.10145V0H18.494V5.04348H18.5542Z" transform="translate(137 6)" fill="#0F3559"/>
<path fill-rule="evenodd" clip-rule="evenodd" d="M29 21H17.7588V19.8468C18.1175 19.8468 18.4763 19.7861 18.9546 19.7254C19.433 19.6647 19.7918 19.604 19.9113 19.4827C20.2701 19.3613 20.5093 19.1185 20.6887 18.8757C20.868 18.6329 20.9278 18.2688 20.9278 17.9046V2.18497L13.8124 20.6358H11.9588C11.899 20.3324 11.6598 19.6647 11.301 18.6936C10.9423 17.7225 10.7031 16.9335 10.4639 16.3873L5.20206 1.9422V14.7486C5.20206 15.9624 5.26186 16.9335 5.44124 17.5405C5.62062 18.1474 5.85979 18.6329 6.21856 18.9364C6.45773 19.1185 6.87629 19.3613 7.53402 19.5434C8.19175 19.7254 8.61031 19.8468 8.84948 19.8468V21H0V19.8468C0.239175 19.8468 0.657732 19.7254 1.19588 19.6647C1.73402 19.5434 2.21237 19.3613 2.57113 19.1185C2.9299 18.815 3.22887 18.3902 3.34845 17.7225C3.46804 17.0549 3.52784 16.1445 3.52784 14.9306V4.49133C3.52784 3.88439 3.46804 3.33815 3.28866 2.91329C3.10928 2.48844 2.8701 2.18497 2.57113 1.9422C2.15258 1.63873 1.79381 1.45665 1.37526 1.33526C0.956701 1.21387 0.538144 1.21387 0.119588 1.15318V0H9.6866L14.7691 13.8382L19.0742 2.60983C19.1938 2.18497 19.3732 1.69942 19.4928 1.15318C19.6124 0.606936 19.6722 0.182081 19.732 0H28.8804V1.15318C28.5814 1.15318 28.2227 1.21387 27.9237 1.27457C27.5649 1.33526 27.266 1.39595 26.967 1.51734C26.6082 1.63873 26.3093 1.82081 26.1897 2.12428C26.0701 2.42775 26.0103 2.73121 26.0103 3.03468V17.9046C26.0103 18.2688 26.0701 18.5723 26.1897 18.815C26.3093 19.0578 26.5485 19.2399 26.967 19.422C27.1464 19.4827 27.5052 19.604 27.9237 19.6647C28.3423 19.7254 28.701 19.7861 28.9402 19.8468V21H29Z" transform="translate(158 6)" fill="#0F3559"/>
<path fill-rule="evenodd" clip-rule="evenodd" d="M13.2088 12.6239L10.2604 5.14526L7.37097 12.6239H13.2088ZM23.9404 21H12.7961V19.8632C13.3262 19.8034 13.9159 19.7436 14.6235 19.5641C15.3317 19.3846 15.6849 19.2051 15.6849 19.0256V18.7863C15.6849 18.6667 15.6265 18.547 15.5676 18.3675L13.7985 14.0598H6.72236C6.54486 14.4786 6.36796 14.8974 6.19165 15.4359C6.01474 15.9744 5.83784 16.453 5.66034 16.8718C5.48344 17.4103 5.3655 17.8291 5.3655 18.0684C5.30713 18.3077 5.30713 18.4872 5.30713 18.6068C5.30713 18.906 5.543 19.2051 6.01474 19.3846C6.48649 19.6239 7.25248 19.7436 8.31391 19.8632V21H0V19.8632C0.29484 19.8632 0.648059 19.8034 1.06084 19.6838C1.4742 19.6239 1.76904 19.5043 2.00491 19.3248C2.4171 19.0855 2.71194 18.7863 3.00678 18.4872C3.30162 18.1282 3.47912 17.7692 3.7144 17.2906C4.83538 14.5385 5.95518 11.8462 7.07617 9.09402C8.19656 6.34188 9.43489 3.35043 10.7906 0H13.6806C15.5676 4.66667 17.0418 8.37607 18.1032 11.1282C19.1646 13.8803 20.0491 16.094 20.8151 17.8889C20.9337 18.188 21.11 18.4273 21.2869 18.6667C21.4644 18.906 21.7592 19.1453 22.113 19.3248C22.4079 19.5043 22.7027 19.6239 23.0559 19.6838C23.4103 19.7436 23.7052 19.8034 24 19.8034V21H23.9404Z" transform="translate(188 6)" fill="#0F3559"/>
<path fill-rule="evenodd" clip-rule="evenodd" d="M20 5.68116H18.8696C18.572 4.81159 18.0958 3.88406 17.4405 2.89855C16.7863 1.91304 16.1911 1.3913 15.5958 1.33333C15.2982 1.27536 14.881 1.27536 14.4643 1.21739C13.9881 1.21739 13.6315 1.15942 13.2738 1.15942H12.6196V17.9275C12.6196 18.2754 12.6786 18.5652 12.7976 18.7971C12.9173 19.029 13.1548 19.2609 13.5125 19.4348C13.75 19.4928 14.1077 19.6087 14.5244 19.7246C15.0006 19.8406 15.4173 19.8986 15.7149 19.8986V21H4.22619V19.8986C4.52381 19.8986 4.88155 19.8406 5.41667 19.7826C5.95238 19.7246 6.25 19.6667 6.42857 19.6087C6.78631 19.4348 7.08393 19.2609 7.20238 19.029C7.32143 18.7971 7.38155 18.4493 7.38155 18.1014V1.21739H6.72619C6.36964 1.21739 6.0119 1.21739 5.53571 1.27536C5.05952 1.27536 4.70298 1.33333 4.40536 1.3913C3.86905 1.44928 3.21488 1.97101 2.55952 2.95652C1.90536 3.94203 1.42917 4.86957 1.13155 5.73913H0V0H19.9405L20 5.68116Z" transform="translate(212 6)" fill="#0F3559"/>
<path fill-rule="evenodd" clip-rule="evenodd" d="M11 21H0V19.8468C0.228606 19.8468 0.629668 19.7861 1.08803 19.7861C1.60425 19.7254 1.89072 19.6647 2.11933 19.604C2.46367 19.4827 2.69228 19.2399 2.80686 18.9971C2.92145 18.7543 2.97875 18.4509 2.97875 18.0867V3.21676C2.97875 2.8526 2.92145 2.60983 2.80686 2.30636C2.69228 2.06358 2.46367 1.82081 2.11933 1.69942C1.89072 1.57803 1.54638 1.51734 1.14589 1.39595C0.686963 1.27457 0.343195 1.21387 0 1.15318V0H11V1.15318C10.7135 1.15318 10.3698 1.21387 9.9687 1.27457C9.56763 1.33526 9.16714 1.39595 8.88067 1.51734C8.53633 1.63873 8.24986 1.82081 8.13527 2.12428C8.02125 2.36705 7.96338 2.73121 7.96338 3.03468V17.9046C7.96338 18.2688 8.02125 18.5723 8.13527 18.815C8.24986 19.0578 8.47961 19.3006 8.88067 19.422C9.05255 19.4827 9.39575 19.604 9.85411 19.6647C10.313 19.7254 10.7135 19.7861 11 19.8468V21Z" transform="translate(233 6)" fill="#0F3559"/>
<path fill-rule="evenodd" clip-rule="evenodd" d="M10.8709 22C9.36937 22 7.92793 21.7589 6.60661 21.2767C5.28528 20.7945 4.14414 20.0712 3.12312 19.1068C2.16216 18.2027 1.38138 17.0575 0.840841 15.6712C0.3003 14.2849 0 12.8384 0 11.211C0 9.58356 0.3003 8.07671 0.840841 6.69041C1.38138 5.30411 2.16216 4.09863 3.18318 3.13425C4.2042 2.16986 5.40541 1.3863 6.78679 0.843836C8.16817 0.30137 9.66967 0 11.2913 0C12.4324 0 13.5135 0.120548 14.4144 0.421918C15.3754 0.723288 16.1562 1.02466 16.8168 1.3863L17.7177 0.60274H18.979L19.0991 8.19726H17.8378C17.1171 5.84657 16.2162 4.1589 15.1952 3.07397C14.1742 1.98904 12.9129 1.44658 11.4715 1.44658C9.60961 1.44658 8.22823 2.23014 7.26727 3.85753C6.30631 5.48493 5.82583 7.77534 5.82583 10.7288C5.82583 12.4164 6.00601 13.8027 6.30631 15.0082C6.60661 16.1534 7.08709 17.1178 7.56757 17.8411C8.10811 18.5644 8.82883 19.1068 9.54955 19.4685C10.3303 19.8301 11.1712 20.011 12.1321 20.011C13.5135 20.011 14.7147 19.6493 15.7958 18.8658C16.8769 18.1425 17.8378 16.9973 18.7387 15.4904L20 16.274C19.5796 17.1178 19.0991 17.9014 18.5586 18.5644C18.018 19.2274 17.4174 19.8301 16.6967 20.3123C15.9159 20.8548 15.0751 21.2767 14.1141 21.5781C13.2733 21.8192 12.1321 22 10.8709 22Z" transform="translate(247 6)" fill="#0F3559"/>
<mask id="mask0" mask-type="alpha" maskUnits="userSpaceOnUse" x="268" y="6" width="18" height="22">
<path fill-rule="evenodd" clip-rule="evenodd" d="M0 0H16.9416V21.8216H0V0Z" transform="translate(269 6.05933)" fill="white"/>
</mask>
<g mask="url(#mask0)">
<path fill-rule="evenodd" clip-rule="evenodd" d="M8.55862 21.8216C7.32759 21.8216 6.15517 21.6432 5.10059 21.3459C4.04541 21.0486 3.1069 20.6324 2.40345 20.2162L1.40748 21.227H0.175862L0 13.7946H1.23103C1.52414 14.5081 1.87645 15.2216 2.28679 16.0541C2.69655 16.827 3.22414 17.5405 3.75231 18.1351C4.33852 18.7892 4.98276 19.3243 5.68679 19.7405C6.39024 20.1568 7.26955 20.3351 8.2069 20.3351C9.49714 20.3351 10.4937 20.0378 11.1966 19.3838C11.9 18.7297 12.2523 17.9568 12.2523 16.9459C12.2523 16.1135 11.9592 15.4595 11.373 14.9243C10.7868 14.3892 9.90748 13.9135 8.67586 13.4973C7.85576 13.2595 7.15231 13.0216 6.44828 12.7838C5.80403 12.5459 5.15862 12.3081 4.57241 12.0703C3.22414 11.5351 2.16955 10.7027 1.52414 9.69189C0.87931 8.68108 0.528172 7.49189 0.528172 6.24324C0.528172 5.41081 0.704035 4.63784 1.05517 3.92432C1.40748 3.21081 1.87645 2.4973 2.5799 1.9027C3.22414 1.36757 3.98621 0.891892 4.98276 0.535135C5.9799 0.178378 7.03448 0 8.2069 0C9.32128 0 10.3764 0.178378 11.373 0.475676C12.369 0.772973 13.1316 1.12973 13.7178 1.42703L14.5971 0.535135H15.8276L15.9454 7.55135H14.6552C14.3621 6.77838 14.0109 6.00541 13.6586 5.23243C13.2483 4.45946 12.8385 3.80541 12.4282 3.27027C11.9592 2.73514 11.431 2.25946 10.7868 1.9027C10.2006 1.54595 9.43793 1.42703 8.61783 1.42703C7.56265 1.42703 6.74138 1.72432 6.09714 2.31892C5.45172 2.91351 5.10059 3.62703 5.10059 4.51892C5.10059 5.35135 5.39369 6.00541 5.9799 6.54054C6.5661 7.07568 7.44541 7.55135 8.61783 7.90811C9.32128 8.14595 10.0241 8.38378 10.7868 8.62162C11.5489 8.85946 12.1931 9.0973 12.7213 9.33514C14.1276 9.87027 15.1833 10.6432 15.8862 11.5946C16.5897 12.5459 16.942 13.7351 16.942 15.1622C16.942 16.0541 16.7069 16.8865 16.3558 17.7189C15.9454 18.5514 15.4172 19.2649 14.7138 19.8C13.9517 20.3946 13.0724 20.8703 12.0759 21.227C11.0799 21.6432 9.90748 21.8216 8.55862 21.8216Z" transform="translate(269 6.05933)" fill="#0F3559"/>
</g>
<path fill-rule="evenodd" clip-rule="evenodd" d="M10 3L5.02857 6L0 3L4.97143 0L10 3Z" transform="translate(9)" fill="#CB181F"/>
<path fill-rule="evenodd" clip-rule="evenodd" d="M5 0V5.98026L0 9V3.01974L5 0Z" transform="translate(14 3)" fill="#B6161C"/>
<path fill-rule="evenodd" clip-rule="evenodd" d="M5 3.01974V9L0 5.98026L0.0561798 0L5 3.01974Z" transform="translate(9 3)" fill="#7F0F13"/>
<path fill-rule="evenodd" clip-rule="evenodd" d="M10 3L5 6L0 3L5 0L10 3Z" transform="translate(17 5)" fill="#CB181F"/>
<path fill-rule="evenodd" clip-rule="evenodd" d="M5 0V5.98026L0 9V3.01974L5 0Z" transform="translate(22 8)" fill="#B6161C"/>
<path fill-rule="evenodd" clip-rule="evenodd" d="M5 3.01974V9L0 5.98026V0L5 3.01974Z" transform="translate(17 8)" fill="#7F0F13"/>
<path fill-rule="evenodd" clip-rule="evenodd" d="M10 3L5 6L0 3L5 0L10 3Z" transform="translate(17 15)" fill="#CB181F"/>
<path fill-rule="evenodd" clip-rule="evenodd" d="M5 0V5.98026L0 9V3.01974L5 0Z" transform="translate(22 18)" fill="#B6161C"/>
<path fill-rule="evenodd" clip-rule="evenodd" d="M5 3.01974V9L0 5.98026V0L5 3.01974Z" transform="translate(17 18)" fill="#7F0F13"/>
<path fill-rule="evenodd" clip-rule="evenodd" d="M10 3L5.02857 6L0 3L4.97143 0L10 3Z" transform="translate(9 20)" fill="#CB181F"/>
<path fill-rule="evenodd" clip-rule="evenodd" d="M5 0V5.98026L0 9V3.01974L5 0Z" transform="translate(14 23)" fill="#B6161C"/>
<path fill-rule="evenodd" clip-rule="evenodd" d="M5 3.01974V9L0 5.98026L0.0561798 0L5 3.01974Z" transform="translate(9 23)" fill="#7F0F13"/>
<path fill-rule="evenodd" clip-rule="evenodd" d="M10 3L5 6L0 3L5 0L10 3Z" transform="translate(0 15)" fill="#CB181F"/>
<path fill-rule="evenodd" clip-rule="evenodd" d="M5 0V5.98026L0 9V3.01974L5 0Z" transform="translate(5 18)" fill="#B6161C"/>
<mask id="mask1" mask-type="alpha" maskUnits="userSpaceOnUse" x="0" y="18" width="5" height="9">
<path fill-rule="evenodd" clip-rule="evenodd" d="M0 0H4.88878V8.55H0V0Z" transform="translate(0 18.1687)" fill="white"/>
</mask>
<g mask="url(#mask1)">
<path fill-rule="evenodd" clip-rule="evenodd" d="M4.88889 2.86875V8.55L0 5.68125V0L4.88889 2.86875Z" transform="translate(-0.00012207 18.1687)" fill="#7F0F13"/>
</g>
<path fill-rule="evenodd" clip-rule="evenodd" d="M10 3L5.02857 6L0 3L4.97143 0L10 3Z" transform="translate(0 5)" fill="#CB181F"/>
<path fill-rule="evenodd" clip-rule="evenodd" d="M5 0V5.98026L0 9V3.01974L5 0Z" transform="translate(5 8)" fill="#B6161C"/>
<mask id="mask2" mask-type="alpha" maskUnits="userSpaceOnUse" x="0" y="8" width="5" height="9">
<path fill-rule="evenodd" clip-rule="evenodd" d="M0 0H4.94439V8.55H0V0Z" transform="translate(0 8.28125)" fill="white"/>
</mask>
<g mask="url(#mask2)">
<path fill-rule="evenodd" clip-rule="evenodd" d="M4.94444 2.86875V8.55L0 5.68125L0.0555556 0L4.94444 2.86875Z" transform="translate(0 8.28125)" fill="#7F0F13"/>
</g>
<path fill-rule="evenodd" clip-rule="evenodd" d="M5 9L0 5.98026V0L5 3.01974V9Z" transform="translate(9 3)" fill="#911A1D"/>
</svg>
